<mxfile host="app.diagrams.net" agent="Mozilla/5.0 (Windows NT 10.0; Win64; x64) AppleWebKit/537.36 (KHTML, like Gecko) Chrome/139.0.0.0 Safari/537.36" version="28.1.1">
  <diagram name="Page-1" id="TmHw_DHnSIURXXkVlHem">
    <mxGraphModel dx="1303" dy="703" grid="1" gridSize="10" guides="1" tooltips="1" connect="1" arrows="1" fold="1" page="1" pageScale="1" pageWidth="850" pageHeight="1100" math="0" shadow="0">
      <root>
        <mxCell id="0" />
        <mxCell id="1" parent="0" />
        <mxCell id="wNMRWOxH344mfKmrS-tl-6" value="" style="group;rounded=0;labelBackgroundColor=none;" vertex="1" connectable="0" parent="1">
          <mxGeometry x="60" y="100" width="1117.43" height="807.91" as="geometry" />
        </mxCell>
        <mxCell id="wNMRWOxH344mfKmrS-tl-7" value="Ward" style="whiteSpace=wrap;html=1;align=center;rounded=0;labelBackgroundColor=none;" vertex="1" parent="wNMRWOxH344mfKmrS-tl-6">
          <mxGeometry x="146.89220657276996" y="73.44636363636364" width="104.92300469483571" height="41.969350649350645" as="geometry" />
        </mxCell>
        <mxCell id="wNMRWOxH344mfKmrS-tl-8" value="WardNo" style="ellipse;whiteSpace=wrap;html=1;align=center;fontStyle=4;rounded=0;labelBackgroundColor=none;" vertex="1" parent="wNMRWOxH344mfKmrS-tl-6">
          <mxGeometry x="146.89220657276996" width="104.92300469483571" height="41.969350649350645" as="geometry" />
        </mxCell>
        <mxCell id="wNMRWOxH344mfKmrS-tl-9" value="Name" style="ellipse;whiteSpace=wrap;html=1;align=center;rounded=0;labelBackgroundColor=none;" vertex="1" parent="wNMRWOxH344mfKmrS-tl-6">
          <mxGeometry x="31.47690140845071" y="31.477012987012984" width="104.92300469483571" height="41.969350649350645" as="geometry" />
        </mxCell>
        <mxCell id="wNMRWOxH344mfKmrS-tl-10" value="Number of&lt;div&gt;Beds&lt;/div&gt;" style="ellipse;whiteSpace=wrap;html=1;align=center;rounded=0;labelBackgroundColor=none;" vertex="1" parent="wNMRWOxH344mfKmrS-tl-6">
          <mxGeometry x="10.49230046948357" y="115.41571428571429" width="104.92300469483571" height="41.969350649350645" as="geometry" />
        </mxCell>
        <mxCell id="wNMRWOxH344mfKmrS-tl-11" value="Patient" style="whiteSpace=wrap;html=1;align=center;rounded=0;labelBackgroundColor=none;" vertex="1" parent="wNMRWOxH344mfKmrS-tl-6">
          <mxGeometry x="535.1109859154931" y="73.44636363636364" width="104.92300469483571" height="41.969350649350645" as="geometry" />
        </mxCell>
        <mxCell id="wNMRWOxH344mfKmrS-tl-12" value="PatientID" style="ellipse;whiteSpace=wrap;html=1;align=center;fontStyle=4;rounded=0;labelBackgroundColor=none;" vertex="1" parent="wNMRWOxH344mfKmrS-tl-6">
          <mxGeometry x="410.0018309859157" y="20.984675324675322" width="104.92300469483571" height="41.969350649350645" as="geometry" />
        </mxCell>
        <mxCell id="wNMRWOxH344mfKmrS-tl-13" value="Name" style="ellipse;whiteSpace=wrap;html=1;align=center;rounded=0;labelBackgroundColor=none;" vertex="1" parent="wNMRWOxH344mfKmrS-tl-6">
          <mxGeometry x="535.1094366197185" width="104.92300469483571" height="41.969350649350645" as="geometry" />
        </mxCell>
        <mxCell id="wNMRWOxH344mfKmrS-tl-14" value="DOB" style="ellipse;whiteSpace=wrap;html=1;align=center;rounded=0;labelBackgroundColor=none;" vertex="1" parent="wNMRWOxH344mfKmrS-tl-6">
          <mxGeometry x="729.2169953051646" y="79.73870129870129" width="104.92300469483571" height="41.969350649350645" as="geometry" />
        </mxCell>
        <mxCell id="wNMRWOxH344mfKmrS-tl-15" value="Address" style="ellipse;whiteSpace=wrap;html=1;align=center;rounded=0;labelBackgroundColor=none;" vertex="1" parent="wNMRWOxH344mfKmrS-tl-6">
          <mxGeometry x="650.003192488263" y="31.474675324675324" width="104.92300469483571" height="41.969350649350645" as="geometry" />
        </mxCell>
        <mxCell id="wNMRWOxH344mfKmrS-tl-16" value="WardNo&lt;div&gt;[FK]&lt;/div&gt;" style="ellipse;whiteSpace=wrap;html=1;align=center;rounded=0;labelBackgroundColor=none;" vertex="1" parent="wNMRWOxH344mfKmrS-tl-6">
          <mxGeometry x="566.5839906103288" y="157.38038961038959" width="104.92300469483571" height="41.969350649350645" as="geometry" />
        </mxCell>
        <mxCell id="wNMRWOxH344mfKmrS-tl-17" value="Consultant&lt;div&gt;StaffID [FK]&lt;/div&gt;" style="ellipse;whiteSpace=wrap;html=1;align=center;rounded=0;labelBackgroundColor=none;" vertex="1" parent="wNMRWOxH344mfKmrS-tl-6">
          <mxGeometry x="440.6779812206575" y="133.2503896103896" width="104.92300469483571" height="41.969350649350645" as="geometry" />
        </mxCell>
        <mxCell id="wNMRWOxH344mfKmrS-tl-18" value="Nurse" style="whiteSpace=wrap;html=1;align=center;rounded=0;labelBackgroundColor=none;" vertex="1" parent="wNMRWOxH344mfKmrS-tl-6">
          <mxGeometry x="146.89220657276996" y="472.1551948051948" width="104.92300469483571" height="41.969350649350645" as="geometry" />
        </mxCell>
        <mxCell id="wNMRWOxH344mfKmrS-tl-19" value="StaffID" style="ellipse;whiteSpace=wrap;html=1;align=center;fontStyle=4;rounded=0;labelBackgroundColor=none;" vertex="1" parent="wNMRWOxH344mfKmrS-tl-6">
          <mxGeometry y="472.1551948051948" width="104.92300469483571" height="41.969350649350645" as="geometry" />
        </mxCell>
        <mxCell id="wNMRWOxH344mfKmrS-tl-20" value="Name" style="ellipse;whiteSpace=wrap;html=1;align=center;rounded=0;labelBackgroundColor=none;" vertex="1" parent="wNMRWOxH344mfKmrS-tl-6">
          <mxGeometry x="32.52613145539907" y="398.7088311688311" width="104.92300469483571" height="41.969350649350645" as="geometry" />
        </mxCell>
        <mxCell id="wNMRWOxH344mfKmrS-tl-21" value="WordNo&lt;div&gt;[FK]&lt;/div&gt;" style="ellipse;whiteSpace=wrap;html=1;align=center;rounded=0;labelBackgroundColor=none;" vertex="1" parent="wNMRWOxH344mfKmrS-tl-6">
          <mxGeometry x="283.2921126760564" y="461.66285714285715" width="104.92300469483571" height="41.969350649350645" as="geometry" />
        </mxCell>
        <mxCell id="wNMRWOxH344mfKmrS-tl-22" value="SupervisedID&lt;div&gt;[FK]&lt;/div&gt;" style="ellipse;whiteSpace=wrap;html=1;align=center;rounded=0;labelBackgroundColor=none;" vertex="1" parent="wNMRWOxH344mfKmrS-tl-6">
          <mxGeometry x="230.83061032863853" y="388.2164935064935" width="104.92300469483571" height="41.969350649350645" as="geometry" />
        </mxCell>
        <mxCell id="wNMRWOxH344mfKmrS-tl-23" value="Consultant" style="whiteSpace=wrap;html=1;align=center;rounded=0;labelBackgroundColor=none;" vertex="1" parent="wNMRWOxH344mfKmrS-tl-6">
          <mxGeometry x="707.1809859154931" y="240.00480519480516" width="104.92300469483571" height="41.969350649350645" as="geometry" />
        </mxCell>
        <mxCell id="wNMRWOxH344mfKmrS-tl-24" value="StaffID" style="ellipse;whiteSpace=wrap;html=1;align=center;fontStyle=4;rounded=0;labelBackgroundColor=none;" vertex="1" parent="wNMRWOxH344mfKmrS-tl-6">
          <mxGeometry x="838.3331924882631" y="190.00311688311683" width="104.92300469483571" height="41.969350649350645" as="geometry" />
        </mxCell>
        <mxCell id="wNMRWOxH344mfKmrS-tl-25" value="Name" style="ellipse;whiteSpace=wrap;html=1;align=center;rounded=0;labelBackgroundColor=none;" vertex="1" parent="wNMRWOxH344mfKmrS-tl-6">
          <mxGeometry x="871.9147417840378" y="249.9957662337662" width="104.92300469483571" height="41.969350649350645" as="geometry" />
        </mxCell>
        <mxCell id="wNMRWOxH344mfKmrS-tl-26" value="Speciality" style="ellipse;whiteSpace=wrap;html=1;align=center;rounded=0;labelBackgroundColor=none;" vertex="1" parent="wNMRWOxH344mfKmrS-tl-6">
          <mxGeometry x="590.0003286384978" y="221.39012987012984" width="104.92300469483571" height="41.969350649350645" as="geometry" />
        </mxCell>
        <mxCell id="wNMRWOxH344mfKmrS-tl-27" value="Team" style="whiteSpace=wrap;html=1;align=center;rounded=0;labelBackgroundColor=none;" vertex="1" parent="wNMRWOxH344mfKmrS-tl-6">
          <mxGeometry x="603.3095774647888" y="342.04527272727273" width="104.92300469483571" height="41.969350649350645" as="geometry" />
        </mxCell>
        <mxCell id="wNMRWOxH344mfKmrS-tl-28" value="Consultant&lt;div&gt;StaffID [FK]&lt;/div&gt;" style="ellipse;whiteSpace=wrap;html=1;align=center;rounded=0;labelBackgroundColor=none;" vertex="1" parent="wNMRWOxH344mfKmrS-tl-6">
          <mxGeometry x="479.9966197183099" y="329.4552727272727" width="104.92300469483571" height="41.969350649350645" as="geometry" />
        </mxCell>
        <mxCell id="wNMRWOxH344mfKmrS-tl-29" value="TeanCode" style="ellipse;whiteSpace=wrap;html=1;align=center;fontStyle=4;rounded=0;labelBackgroundColor=none;" vertex="1" parent="wNMRWOxH344mfKmrS-tl-6">
          <mxGeometry x="602.2595774647889" y="287.4904415584415" width="104.92300469483571" height="41.969350649350645" as="geometry" />
        </mxCell>
        <mxCell id="wNMRWOxH344mfKmrS-tl-30" value="Number of&lt;div&gt;Doctors&lt;/div&gt;" style="ellipse;whiteSpace=wrap;html=1;align=center;rounded=0;labelBackgroundColor=none;" vertex="1" parent="wNMRWOxH344mfKmrS-tl-6">
          <mxGeometry x="519.9950234741785" y="409.9985714285714" width="104.92300469483571" height="41.969350649350645" as="geometry" />
        </mxCell>
        <mxCell id="wNMRWOxH344mfKmrS-tl-31" value="Junior Doctor" style="whiteSpace=wrap;html=1;align=center;rounded=0;labelBackgroundColor=none;" vertex="1" parent="wNMRWOxH344mfKmrS-tl-6">
          <mxGeometry x="415.07173708920203" y="497.4950129870129" width="104.92300469483571" height="41.969350649350645" as="geometry" />
        </mxCell>
        <mxCell id="wNMRWOxH344mfKmrS-tl-32" value="TeamCode&lt;div&gt;[FK]&lt;/div&gt;" style="ellipse;whiteSpace=wrap;html=1;align=center;rounded=0;labelBackgroundColor=none;" vertex="1" parent="wNMRWOxH344mfKmrS-tl-6">
          <mxGeometry x="249.99854460093923" y="630.004935064935" width="104.92300469483571" height="41.969350649350645" as="geometry" />
        </mxCell>
        <mxCell id="wNMRWOxH344mfKmrS-tl-33" value="Name" style="ellipse;whiteSpace=wrap;html=1;align=center;rounded=0;labelBackgroundColor=none;" vertex="1" parent="wNMRWOxH344mfKmrS-tl-6">
          <mxGeometry x="545.0799999999999" y="603.81" width="104.92" height="51.45" as="geometry" />
        </mxCell>
        <mxCell id="wNMRWOxH344mfKmrS-tl-34" value="StaffID" style="ellipse;whiteSpace=wrap;html=1;align=center;fontStyle=4;rounded=0;labelBackgroundColor=none;" vertex="1" parent="wNMRWOxH344mfKmrS-tl-6">
          <mxGeometry x="356.7333333333335" y="608.5506493506493" width="104.92300469483571" height="41.969350649350645" as="geometry" />
        </mxCell>
        <mxCell id="wNMRWOxH344mfKmrS-tl-35" value="Years of&lt;div&gt;Experience&lt;/div&gt;" style="ellipse;whiteSpace=wrap;html=1;align=center;rounded=0;labelBackgroundColor=none;" vertex="1" parent="wNMRWOxH344mfKmrS-tl-6">
          <mxGeometry x="430.1832394366198" y="566.5806493506493" width="104.92300469483571" height="41.969350649350645" as="geometry" />
        </mxCell>
        <mxCell id="wNMRWOxH344mfKmrS-tl-36" value="" style="endArrow=none;html=1;rounded=0;exitX=0.5;exitY=0;exitDx=0;exitDy=0;entryX=0.25;entryY=1;entryDx=0;entryDy=0;labelBackgroundColor=none;fontColor=default;" edge="1" parent="wNMRWOxH344mfKmrS-tl-6" source="wNMRWOxH344mfKmrS-tl-34" target="wNMRWOxH344mfKmrS-tl-31">
          <mxGeometry relative="1" as="geometry">
            <mxPoint x="566.5842253521128" y="535.1092207792208" as="sourcePoint" />
            <mxPoint x="860.3686384976528" y="723.9712987012987" as="targetPoint" />
          </mxGeometry>
        </mxCell>
        <mxCell id="wNMRWOxH344mfKmrS-tl-37" value="" style="endArrow=none;html=1;rounded=0;exitX=1;exitY=1;exitDx=0;exitDy=0;entryX=0;entryY=0.25;entryDx=0;entryDy=0;labelBackgroundColor=none;fontColor=default;" edge="1" parent="wNMRWOxH344mfKmrS-tl-6" source="wNMRWOxH344mfKmrS-tl-9" target="wNMRWOxH344mfKmrS-tl-7">
          <mxGeometry relative="1" as="geometry">
            <mxPoint x="188.86140845070426" y="125.90805194805193" as="sourcePoint" />
            <mxPoint x="356.73821596244136" y="125.90805194805193" as="targetPoint" />
          </mxGeometry>
        </mxCell>
        <mxCell id="wNMRWOxH344mfKmrS-tl-38" value="" style="endArrow=none;html=1;rounded=0;exitX=0.5;exitY=1;exitDx=0;exitDy=0;entryX=0.5;entryY=0;entryDx=0;entryDy=0;labelBackgroundColor=none;fontColor=default;" edge="1" parent="wNMRWOxH344mfKmrS-tl-6" source="wNMRWOxH344mfKmrS-tl-8" target="wNMRWOxH344mfKmrS-tl-7">
          <mxGeometry relative="1" as="geometry">
            <mxPoint x="199.35370892018784" y="41.969350649350645" as="sourcePoint" />
            <mxPoint x="356.73821596244136" y="41.969350649350645" as="targetPoint" />
          </mxGeometry>
        </mxCell>
        <mxCell id="wNMRWOxH344mfKmrS-tl-39" value="" style="endArrow=none;html=1;rounded=0;exitX=1;exitY=0.5;exitDx=0;exitDy=0;entryX=0;entryY=1;entryDx=0;entryDy=0;labelBackgroundColor=none;fontColor=default;" edge="1" parent="wNMRWOxH344mfKmrS-tl-6" source="wNMRWOxH344mfKmrS-tl-10" target="wNMRWOxH344mfKmrS-tl-7">
          <mxGeometry relative="1" as="geometry">
            <mxPoint x="283.2921126760564" y="94.43103896103895" as="sourcePoint" />
            <mxPoint x="451.1689201877935" y="94.43103896103895" as="targetPoint" />
          </mxGeometry>
        </mxCell>
        <mxCell id="wNMRWOxH344mfKmrS-tl-40" value="" style="endArrow=none;html=1;rounded=0;entryX=1;entryY=1;entryDx=0;entryDy=0;exitX=0;exitY=0.25;exitDx=0;exitDy=0;labelBackgroundColor=none;fontColor=default;" edge="1" parent="wNMRWOxH344mfKmrS-tl-6" source="wNMRWOxH344mfKmrS-tl-11" target="wNMRWOxH344mfKmrS-tl-12">
          <mxGeometry relative="1" as="geometry">
            <mxPoint x="666.2610798122067" y="115.41571428571429" as="sourcePoint" />
            <mxPoint x="834.1378873239438" y="115.41571428571429" as="targetPoint" />
          </mxGeometry>
        </mxCell>
        <mxCell id="wNMRWOxH344mfKmrS-tl-41" value="" style="endArrow=none;html=1;rounded=0;entryX=0.5;entryY=1;entryDx=0;entryDy=0;exitX=0.5;exitY=0;exitDx=0;exitDy=0;labelBackgroundColor=none;fontColor=default;" edge="1" parent="wNMRWOxH344mfKmrS-tl-6" source="wNMRWOxH344mfKmrS-tl-11" target="wNMRWOxH344mfKmrS-tl-13">
          <mxGeometry relative="1" as="geometry">
            <mxPoint x="792.1686854460096" y="188.8620779220779" as="sourcePoint" />
            <mxPoint x="876.107089201878" y="41.969350649350645" as="targetPoint" />
          </mxGeometry>
        </mxCell>
        <mxCell id="wNMRWOxH344mfKmrS-tl-42" value="" style="endArrow=none;html=1;rounded=0;exitX=0;exitY=1;exitDx=0;exitDy=0;entryX=1;entryY=0.25;entryDx=0;entryDy=0;labelBackgroundColor=none;fontColor=default;" edge="1" parent="wNMRWOxH344mfKmrS-tl-6" source="wNMRWOxH344mfKmrS-tl-15" target="wNMRWOxH344mfKmrS-tl-11">
          <mxGeometry relative="1" as="geometry">
            <mxPoint x="939.0608920187796" y="94.43103896103895" as="sourcePoint" />
            <mxPoint x="1106.9376995305165" y="94.43103896103895" as="targetPoint" />
          </mxGeometry>
        </mxCell>
        <mxCell id="wNMRWOxH344mfKmrS-tl-43" value="" style="endArrow=none;html=1;rounded=0;entryX=0;entryY=0.5;entryDx=0;entryDy=0;exitX=1;exitY=0.5;exitDx=0;exitDy=0;labelBackgroundColor=none;fontColor=default;" edge="1" parent="wNMRWOxH344mfKmrS-tl-6" source="wNMRWOxH344mfKmrS-tl-11" target="wNMRWOxH344mfKmrS-tl-14">
          <mxGeometry relative="1" as="geometry">
            <mxPoint x="792.1686854460096" y="167.87740259740258" as="sourcePoint" />
            <mxPoint x="960.0454929577467" y="167.87740259740258" as="targetPoint" />
          </mxGeometry>
        </mxCell>
        <mxCell id="wNMRWOxH344mfKmrS-tl-44" value="" style="endArrow=none;html=1;rounded=0;entryX=0.5;entryY=0;entryDx=0;entryDy=0;labelBackgroundColor=none;fontColor=default;exitX=0.5;exitY=1;exitDx=0;exitDy=0;" edge="1" parent="wNMRWOxH344mfKmrS-tl-6" source="wNMRWOxH344mfKmrS-tl-11" target="wNMRWOxH344mfKmrS-tl-16">
          <mxGeometry relative="1" as="geometry">
            <mxPoint x="580" y="140" as="sourcePoint" />
            <mxPoint x="1085.9530985915496" y="157.38506493506492" as="targetPoint" />
            <Array as="points">
              <mxPoint x="619" y="170" />
            </Array>
          </mxGeometry>
        </mxCell>
        <mxCell id="wNMRWOxH344mfKmrS-tl-45" value="" style="endArrow=none;html=1;rounded=0;entryX=0.5;entryY=0;entryDx=0;entryDy=0;exitX=0.25;exitY=1;exitDx=0;exitDy=0;labelBackgroundColor=none;fontColor=default;" edge="1" parent="wNMRWOxH344mfKmrS-tl-6" source="wNMRWOxH344mfKmrS-tl-11" target="wNMRWOxH344mfKmrS-tl-17">
          <mxGeometry relative="1" as="geometry">
            <mxPoint x="855.122488262911" y="220.33909090909088" as="sourcePoint" />
            <mxPoint x="1022.9992957746481" y="220.33909090909088" as="targetPoint" />
          </mxGeometry>
        </mxCell>
        <mxCell id="wNMRWOxH344mfKmrS-tl-46" value="" style="endArrow=none;html=1;rounded=0;entryX=1;entryY=0.5;entryDx=0;entryDy=0;exitX=0;exitY=0.25;exitDx=0;exitDy=0;labelBackgroundColor=none;fontColor=default;" edge="1" parent="wNMRWOxH344mfKmrS-tl-6" source="wNMRWOxH344mfKmrS-tl-18" target="wNMRWOxH344mfKmrS-tl-19">
          <mxGeometry relative="1" as="geometry">
            <mxPoint x="241.3229107981221" y="514.1245454545455" as="sourcePoint" />
            <mxPoint x="409.19971830985924" y="514.1245454545455" as="targetPoint" />
          </mxGeometry>
        </mxCell>
        <mxCell id="wNMRWOxH344mfKmrS-tl-47" value="" style="endArrow=none;html=1;rounded=0;entryX=1;entryY=1;entryDx=0;entryDy=0;exitX=0.25;exitY=0;exitDx=0;exitDy=0;labelBackgroundColor=none;fontColor=default;" edge="1" parent="wNMRWOxH344mfKmrS-tl-6" source="wNMRWOxH344mfKmrS-tl-18" target="wNMRWOxH344mfKmrS-tl-20">
          <mxGeometry relative="1" as="geometry">
            <mxPoint x="157.38450704225355" y="577.0785714285714" as="sourcePoint" />
            <mxPoint x="325.2613145539907" y="577.0785714285714" as="targetPoint" />
          </mxGeometry>
        </mxCell>
        <mxCell id="wNMRWOxH344mfKmrS-tl-48" value="" style="endArrow=none;html=1;rounded=0;entryX=0.5;entryY=1;entryDx=0;entryDy=0;exitX=0.75;exitY=0;exitDx=0;exitDy=0;labelBackgroundColor=none;fontColor=default;" edge="1" parent="wNMRWOxH344mfKmrS-tl-6" source="wNMRWOxH344mfKmrS-tl-18" target="wNMRWOxH344mfKmrS-tl-22">
          <mxGeometry relative="1" as="geometry">
            <mxPoint x="178.36910798122068" y="587.5709090909091" as="sourcePoint" />
            <mxPoint x="346.24591549295786" y="587.5709090909091" as="targetPoint" />
          </mxGeometry>
        </mxCell>
        <mxCell id="wNMRWOxH344mfKmrS-tl-49" value="" style="endArrow=none;html=1;rounded=0;entryX=0;entryY=0.5;entryDx=0;entryDy=0;exitX=1;exitY=0.25;exitDx=0;exitDy=0;labelBackgroundColor=none;fontColor=default;" edge="1" parent="wNMRWOxH344mfKmrS-tl-6" source="wNMRWOxH344mfKmrS-tl-18" target="wNMRWOxH344mfKmrS-tl-21">
          <mxGeometry relative="1" as="geometry">
            <mxPoint x="230.83061032863853" y="556.0938961038961" as="sourcePoint" />
            <mxPoint x="398.7074178403757" y="556.0938961038961" as="targetPoint" />
          </mxGeometry>
        </mxCell>
        <mxCell id="wNMRWOxH344mfKmrS-tl-50" value="" style="endArrow=none;html=1;rounded=0;entryX=1;entryY=0.25;entryDx=0;entryDy=0;exitX=0;exitY=0.5;exitDx=0;exitDy=0;labelBackgroundColor=none;fontColor=default;" edge="1" parent="wNMRWOxH344mfKmrS-tl-6" source="wNMRWOxH344mfKmrS-tl-24" target="wNMRWOxH344mfKmrS-tl-23">
          <mxGeometry relative="1" as="geometry">
            <mxPoint x="681.9995305164321" y="409.2011688311688" as="sourcePoint" />
            <mxPoint x="849.8763380281692" y="409.2011688311688" as="targetPoint" />
          </mxGeometry>
        </mxCell>
        <mxCell id="wNMRWOxH344mfKmrS-tl-51" value="" style="endArrow=none;html=1;rounded=0;entryX=0.351;entryY=0.036;entryDx=0;entryDy=0;entryPerimeter=0;exitX=1;exitY=1;exitDx=0;exitDy=0;labelBackgroundColor=none;fontColor=default;" edge="1" parent="wNMRWOxH344mfKmrS-tl-6" source="wNMRWOxH344mfKmrS-tl-23" target="wNMRWOxH344mfKmrS-tl-25">
          <mxGeometry relative="1" as="geometry">
            <mxPoint x="881.3532394366198" y="419.69350649350645" as="sourcePoint" />
            <mxPoint x="1049.230046948357" y="419.69350649350645" as="targetPoint" />
          </mxGeometry>
        </mxCell>
        <mxCell id="wNMRWOxH344mfKmrS-tl-52" value="" style="endArrow=none;html=1;rounded=0;entryX=1;entryY=0.5;entryDx=0;entryDy=0;exitX=0;exitY=0.5;exitDx=0;exitDy=0;labelBackgroundColor=none;fontColor=default;" edge="1" parent="wNMRWOxH344mfKmrS-tl-6" source="wNMRWOxH344mfKmrS-tl-23" target="wNMRWOxH344mfKmrS-tl-26">
          <mxGeometry relative="1" as="geometry">
            <mxPoint x="786.9225352112677" y="419.69350649350645" as="sourcePoint" />
            <mxPoint x="954.7993427230049" y="419.69350649350645" as="targetPoint" />
          </mxGeometry>
        </mxCell>
        <mxCell id="wNMRWOxH344mfKmrS-tl-53" value="" style="endArrow=none;html=1;rounded=0;exitX=0.5;exitY=0;exitDx=0;exitDy=0;labelBackgroundColor=none;fontColor=default;" edge="1" parent="wNMRWOxH344mfKmrS-tl-6" source="wNMRWOxH344mfKmrS-tl-27" target="wNMRWOxH344mfKmrS-tl-29">
          <mxGeometry relative="1" as="geometry">
            <mxPoint x="482.6458215962442" y="604.3586493506493" as="sourcePoint" />
            <mxPoint x="650.5226291079814" y="604.3586493506493" as="targetPoint" />
          </mxGeometry>
        </mxCell>
        <mxCell id="wNMRWOxH344mfKmrS-tl-54" value="" style="endArrow=none;html=1;rounded=0;entryX=1;entryY=0.5;entryDx=0;entryDy=0;exitX=0;exitY=0.5;exitDx=0;exitDy=0;labelBackgroundColor=none;fontColor=default;" edge="1" parent="wNMRWOxH344mfKmrS-tl-6" source="wNMRWOxH344mfKmrS-tl-27" target="wNMRWOxH344mfKmrS-tl-28">
          <mxGeometry relative="1" as="geometry">
            <mxPoint x="451.1689201877935" y="646.3279999999999" as="sourcePoint" />
            <mxPoint x="619.0457276995306" y="646.3279999999999" as="targetPoint" />
          </mxGeometry>
        </mxCell>
        <mxCell id="wNMRWOxH344mfKmrS-tl-55" value="" style="endArrow=none;html=1;rounded=0;entryX=0.5;entryY=0;entryDx=0;entryDy=0;exitX=0.25;exitY=1;exitDx=0;exitDy=0;labelBackgroundColor=none;fontColor=default;" edge="1" parent="wNMRWOxH344mfKmrS-tl-6" source="wNMRWOxH344mfKmrS-tl-27" target="wNMRWOxH344mfKmrS-tl-30">
          <mxGeometry relative="1" as="geometry">
            <mxPoint x="535.1073239436621" y="635.8356623376624" as="sourcePoint" />
            <mxPoint x="702.9841314553993" y="635.8356623376624" as="targetPoint" />
          </mxGeometry>
        </mxCell>
        <mxCell id="wNMRWOxH344mfKmrS-tl-56" value="" style="endArrow=none;html=1;rounded=0;exitX=1;exitY=0.25;exitDx=0;exitDy=0;entryX=0.663;entryY=0.093;entryDx=0;entryDy=0;labelBackgroundColor=none;fontColor=default;entryPerimeter=0;" edge="1" parent="wNMRWOxH344mfKmrS-tl-6" target="wNMRWOxH344mfKmrS-tl-32">
          <mxGeometry relative="1" as="geometry">
            <mxPoint x="415.0047417840376" y="517.4273506493507" as="sourcePoint" />
            <mxPoint x="891.7785446009404" y="680.9496103896106" as="targetPoint" />
          </mxGeometry>
        </mxCell>
        <mxCell id="wNMRWOxH344mfKmrS-tl-57" value="" style="endArrow=none;html=1;rounded=0;exitX=1;exitY=0.75;exitDx=0;exitDy=0;entryX=0;entryY=0;entryDx=0;entryDy=0;labelBackgroundColor=none;fontColor=default;" edge="1" parent="wNMRWOxH344mfKmrS-tl-6" source="wNMRWOxH344mfKmrS-tl-31" target="wNMRWOxH344mfKmrS-tl-33">
          <mxGeometry relative="1" as="geometry">
            <mxPoint x="1091.1992488262913" y="776.432987012987" as="sourcePoint" />
            <mxPoint x="1259.0760563380284" y="776.432987012987" as="targetPoint" />
          </mxGeometry>
        </mxCell>
        <mxCell id="wNMRWOxH344mfKmrS-tl-58" value="" style="endArrow=none;html=1;rounded=0;entryX=0.5;entryY=0;entryDx=0;entryDy=0;exitX=0.75;exitY=1;exitDx=0;exitDy=0;labelBackgroundColor=none;fontColor=default;" edge="1" parent="wNMRWOxH344mfKmrS-tl-6" source="wNMRWOxH344mfKmrS-tl-31" target="wNMRWOxH344mfKmrS-tl-35">
          <mxGeometry relative="1" as="geometry">
            <mxPoint x="965.2916431924884" y="776.432987012987" as="sourcePoint" />
            <mxPoint x="1133.1684507042255" y="776.432987012987" as="targetPoint" />
          </mxGeometry>
        </mxCell>
        <mxCell id="wNMRWOxH344mfKmrS-tl-59" value="Has" style="shape=rhombus;perimeter=rhombusPerimeter;whiteSpace=wrap;html=1;align=center;rounded=0;labelBackgroundColor=none;" vertex="1" parent="wNMRWOxH344mfKmrS-tl-6">
          <mxGeometry x="335.75361502347425" y="62.95402597402597" width="125.90760563380285" height="62.95402597402597" as="geometry" />
        </mxCell>
        <mxCell id="wNMRWOxH344mfKmrS-tl-60" value="Has" style="shape=rhombus;perimeter=rhombusPerimeter;whiteSpace=wrap;html=1;align=center;rounded=0;labelBackgroundColor=none;" vertex="1" parent="wNMRWOxH344mfKmrS-tl-6">
          <mxGeometry x="137.44913615023475" y="263.35767532467526" width="125.90760563380285" height="62.95402597402597" as="geometry" />
        </mxCell>
        <mxCell id="wNMRWOxH344mfKmrS-tl-61" value="Supervises" style="shape=rhombus;perimeter=rhombusPerimeter;whiteSpace=wrap;html=1;align=center;rounded=0;labelBackgroundColor=none;" vertex="1" parent="wNMRWOxH344mfKmrS-tl-6">
          <mxGeometry x="146.89220657276996" y="566.5862337662337" width="104.92300469483571" height="57.707857142857144" as="geometry" />
        </mxCell>
        <mxCell id="wNMRWOxH344mfKmrS-tl-62" value="Admits" style="shape=rhombus;perimeter=rhombusPerimeter;whiteSpace=wrap;html=1;align=center;rounded=0;labelBackgroundColor=none;" vertex="1" parent="wNMRWOxH344mfKmrS-tl-6">
          <mxGeometry x="689.9986854460096" y="146.88441558441556" width="125.90760563380285" height="62.95402597402597" as="geometry" />
        </mxCell>
        <mxCell id="wNMRWOxH344mfKmrS-tl-63" value="Has" style="shape=rhombus;perimeter=rhombusPerimeter;whiteSpace=wrap;html=1;align=center;rounded=0;labelBackgroundColor=none;" vertex="1" parent="wNMRWOxH344mfKmrS-tl-6">
          <mxGeometry x="813.38" y="308.47" width="129.88" height="62.95" as="geometry" />
        </mxCell>
        <mxCell id="wNMRWOxH344mfKmrS-tl-64" value="Has" style="shape=rhombus;perimeter=rhombusPerimeter;whiteSpace=wrap;html=1;align=center;rounded=0;labelBackgroundColor=none;" vertex="1" parent="wNMRWOxH344mfKmrS-tl-6">
          <mxGeometry x="603.3072769953053" y="487.0026753246752" width="125.90760563380285" height="62.95402597402597" as="geometry" />
        </mxCell>
        <mxCell id="wNMRWOxH344mfKmrS-tl-65" value="" style="endArrow=none;html=1;rounded=0;entryX=0.5;entryY=1;entryDx=0;entryDy=0;exitX=0.5;exitY=0;exitDx=0;exitDy=0;labelBackgroundColor=none;fontColor=default;" edge="1" parent="wNMRWOxH344mfKmrS-tl-6" source="wNMRWOxH344mfKmrS-tl-60" target="wNMRWOxH344mfKmrS-tl-7">
          <mxGeometry relative="1" as="geometry">
            <mxPoint x="367.2305164319249" y="241.3237662337662" as="sourcePoint" />
            <mxPoint x="535.1073239436621" y="241.3237662337662" as="targetPoint" />
          </mxGeometry>
        </mxCell>
        <mxCell id="wNMRWOxH344mfKmrS-tl-66" value="" style="endArrow=none;html=1;rounded=0;entryX=0.5;entryY=0;entryDx=0;entryDy=0;exitX=0.5;exitY=1;exitDx=0;exitDy=0;labelBackgroundColor=none;fontColor=default;" edge="1" parent="wNMRWOxH344mfKmrS-tl-6" source="wNMRWOxH344mfKmrS-tl-60" target="wNMRWOxH344mfKmrS-tl-18">
          <mxGeometry relative="1" as="geometry">
            <mxPoint x="346.24591549295786" y="356.7394805194805" as="sourcePoint" />
            <mxPoint x="514.1227230046949" y="356.7394805194805" as="targetPoint" />
          </mxGeometry>
        </mxCell>
        <mxCell id="wNMRWOxH344mfKmrS-tl-67" value="" style="endArrow=none;html=1;rounded=0;exitX=1;exitY=1;exitDx=0;exitDy=0;entryX=1;entryY=0.5;entryDx=0;entryDy=0;labelBackgroundColor=none;fontColor=default;" edge="1" parent="wNMRWOxH344mfKmrS-tl-6" source="wNMRWOxH344mfKmrS-tl-18" target="wNMRWOxH344mfKmrS-tl-61">
          <mxGeometry relative="1" as="geometry">
            <mxPoint x="388.2151173708921" y="587.5709090909091" as="sourcePoint" />
            <mxPoint x="556.0919248826292" y="587.5709090909091" as="targetPoint" />
          </mxGeometry>
        </mxCell>
        <mxCell id="wNMRWOxH344mfKmrS-tl-68" value="" style="endArrow=none;html=1;rounded=0;entryX=0;entryY=1;entryDx=0;entryDy=0;exitX=0;exitY=0.5;exitDx=0;exitDy=0;labelBackgroundColor=none;fontColor=default;" edge="1" parent="wNMRWOxH344mfKmrS-tl-6" source="wNMRWOxH344mfKmrS-tl-61" target="wNMRWOxH344mfKmrS-tl-18">
          <mxGeometry relative="1" as="geometry">
            <mxPoint x="230.83061032863853" y="577.0785714285714" as="sourcePoint" />
            <mxPoint x="398.7074178403757" y="577.0785714285714" as="targetPoint" />
          </mxGeometry>
        </mxCell>
        <mxCell id="wNMRWOxH344mfKmrS-tl-69" value="" style="endArrow=none;html=1;rounded=0;entryX=0;entryY=0.5;entryDx=0;entryDy=0;exitX=1;exitY=0.5;exitDx=0;exitDy=0;labelBackgroundColor=none;fontColor=default;" edge="1" parent="wNMRWOxH344mfKmrS-tl-6" source="wNMRWOxH344mfKmrS-tl-7" target="wNMRWOxH344mfKmrS-tl-59">
          <mxGeometry relative="1" as="geometry">
            <mxPoint x="377.7228169014085" y="188.8620779220779" as="sourcePoint" />
            <mxPoint x="545.5996244131456" y="188.8620779220779" as="targetPoint" />
          </mxGeometry>
        </mxCell>
        <mxCell id="wNMRWOxH344mfKmrS-tl-70" value="" style="endArrow=none;html=1;rounded=0;exitX=1;exitY=0.5;exitDx=0;exitDy=0;entryX=0;entryY=0.5;entryDx=0;entryDy=0;labelBackgroundColor=none;fontColor=default;" edge="1" parent="wNMRWOxH344mfKmrS-tl-6" source="wNMRWOxH344mfKmrS-tl-59" target="wNMRWOxH344mfKmrS-tl-11">
          <mxGeometry relative="1" as="geometry">
            <mxPoint x="493.1381220657278" y="146.89272727272729" as="sourcePoint" />
            <mxPoint x="661.014929577465" y="146.89272727272729" as="targetPoint" />
          </mxGeometry>
        </mxCell>
        <mxCell id="wNMRWOxH344mfKmrS-tl-71" value="" style="endArrow=none;html=1;rounded=0;entryX=0.5;entryY=1;entryDx=0;entryDy=0;exitX=0.5;exitY=0;exitDx=0;exitDy=0;labelBackgroundColor=none;fontColor=default;" edge="1" parent="wNMRWOxH344mfKmrS-tl-6" source="wNMRWOxH344mfKmrS-tl-62" target="wNMRWOxH344mfKmrS-tl-11">
          <mxGeometry relative="1" as="geometry">
            <mxPoint x="598.0611267605635" y="167.87740259740258" as="sourcePoint" />
            <mxPoint x="765.9379342723006" y="167.87740259740258" as="targetPoint" />
          </mxGeometry>
        </mxCell>
        <mxCell id="wNMRWOxH344mfKmrS-tl-72" value="" style="endArrow=none;html=1;rounded=0;exitX=0.5;exitY=1;exitDx=0;exitDy=0;entryX=0.5;entryY=0;entryDx=0;entryDy=0;labelBackgroundColor=none;fontColor=default;" edge="1" parent="wNMRWOxH344mfKmrS-tl-6" source="wNMRWOxH344mfKmrS-tl-62" target="wNMRWOxH344mfKmrS-tl-23">
          <mxGeometry relative="1" as="geometry">
            <mxPoint x="839.3840375586857" y="241.3237662337662" as="sourcePoint" />
            <mxPoint x="1007.2608450704228" y="241.3237662337662" as="targetPoint" />
          </mxGeometry>
        </mxCell>
        <mxCell id="wNMRWOxH344mfKmrS-tl-73" value="" style="endArrow=none;html=1;rounded=0;entryX=0.5;entryY=1;entryDx=0;entryDy=0;labelBackgroundColor=none;fontColor=default;" edge="1" parent="wNMRWOxH344mfKmrS-tl-6" target="wNMRWOxH344mfKmrS-tl-23">
          <mxGeometry relative="1" as="geometry">
            <mxPoint x="820" y="340" as="sourcePoint" />
            <mxPoint x="723.9687323943663" y="461.66285714285715" as="targetPoint" />
          </mxGeometry>
        </mxCell>
        <mxCell id="wNMRWOxH344mfKmrS-tl-74" value="" style="endArrow=none;html=1;rounded=0;entryX=0.5;entryY=1;entryDx=0;entryDy=0;exitX=1;exitY=0.5;exitDx=0;exitDy=0;labelBackgroundColor=none;fontColor=default;" edge="1" parent="wNMRWOxH344mfKmrS-tl-6" source="wNMRWOxH344mfKmrS-tl-27" target="wNMRWOxH344mfKmrS-tl-63">
          <mxGeometry relative="1" as="geometry">
            <mxPoint x="619.0457276995306" y="493.1398701298701" as="sourcePoint" />
            <mxPoint x="786.9225352112677" y="493.1398701298701" as="targetPoint" />
          </mxGeometry>
        </mxCell>
        <mxCell id="wNMRWOxH344mfKmrS-tl-75" value="" style="endArrow=none;html=1;rounded=0;entryX=0.5;entryY=0;entryDx=0;entryDy=0;exitX=0.5;exitY=1;exitDx=0;exitDy=0;labelBackgroundColor=none;fontColor=default;" edge="1" parent="wNMRWOxH344mfKmrS-tl-6" source="wNMRWOxH344mfKmrS-tl-27" target="wNMRWOxH344mfKmrS-tl-64">
          <mxGeometry relative="1" as="geometry">
            <mxPoint x="650.5226291079814" y="545.6015584415584" as="sourcePoint" />
            <mxPoint x="818.3994366197185" y="545.6015584415584" as="targetPoint" />
          </mxGeometry>
        </mxCell>
        <mxCell id="wNMRWOxH344mfKmrS-tl-76" value="" style="endArrow=none;html=1;rounded=0;exitX=0;exitY=0.5;exitDx=0;exitDy=0;entryX=0;entryY=0.5;entryDx=0;entryDy=0;labelBackgroundColor=none;fontColor=default;" edge="1" parent="wNMRWOxH344mfKmrS-tl-6" source="wNMRWOxH344mfKmrS-tl-64" target="wNMRWOxH344mfKmrS-tl-31">
          <mxGeometry relative="1" as="geometry">
            <mxPoint x="902.337840375587" y="587.5709090909091" as="sourcePoint" />
            <mxPoint x="1070.2146478873242" y="587.5709090909091" as="targetPoint" />
          </mxGeometry>
        </mxCell>
        <mxCell id="wNMRWOxH344mfKmrS-tl-77" value="1" style="text;html=1;align=center;verticalAlign=middle;whiteSpace=wrap;rounded=0;labelBackgroundColor=none;" vertex="1" parent="wNMRWOxH344mfKmrS-tl-6">
          <mxGeometry x="258.1105915492958" y="77.64329870129869" width="11.541530516431926" height="11.541571428571428" as="geometry" />
        </mxCell>
        <mxCell id="wNMRWOxH344mfKmrS-tl-78" value="N" style="text;html=1;align=center;verticalAlign=middle;whiteSpace=wrap;rounded=0;labelBackgroundColor=none;" vertex="1" parent="wNMRWOxH344mfKmrS-tl-6">
          <mxGeometry x="778.5286948356809" y="77.64329870129869" width="11.541530516431926" height="11.541571428571428" as="geometry" />
        </mxCell>
        <mxCell id="wNMRWOxH344mfKmrS-tl-79" value="1" style="text;html=1;align=center;verticalAlign=middle;whiteSpace=wrap;rounded=0;labelBackgroundColor=none;" vertex="1" parent="wNMRWOxH344mfKmrS-tl-6">
          <mxGeometry x="204.59985915492962" y="120.6618831168831" width="11.541530516431926" height="11.541571428571428" as="geometry" />
        </mxCell>
        <mxCell id="wNMRWOxH344mfKmrS-tl-80" value="1" style="text;html=1;align=center;verticalAlign=middle;whiteSpace=wrap;rounded=0;labelBackgroundColor=none;" vertex="1" parent="wNMRWOxH344mfKmrS-tl-6">
          <mxGeometry x="256.0121314553991" y="518.3214805194805" width="11.541530516431926" height="11.541571428571428" as="geometry" />
        </mxCell>
        <mxCell id="wNMRWOxH344mfKmrS-tl-81" value="N" style="text;html=1;align=center;verticalAlign=middle;whiteSpace=wrap;rounded=0;labelBackgroundColor=none;" vertex="1" parent="wNMRWOxH344mfKmrS-tl-6">
          <mxGeometry x="131.15375586854464" y="518.3214805194805" width="11.541530516431926" height="11.541571428571428" as="geometry" />
        </mxCell>
        <mxCell id="wNMRWOxH344mfKmrS-tl-82" value="N" style="text;html=1;align=center;verticalAlign=middle;whiteSpace=wrap;rounded=0;labelBackgroundColor=none;" vertex="1" parent="wNMRWOxH344mfKmrS-tl-6">
          <mxGeometry x="204.59985915492962" y="454.3182207792207" width="11.541530516431926" height="11.541571428571428" as="geometry" />
        </mxCell>
        <mxCell id="wNMRWOxH344mfKmrS-tl-83" value="N" style="text;html=1;align=center;verticalAlign=middle;whiteSpace=wrap;rounded=0;labelBackgroundColor=none;" vertex="1" parent="wNMRWOxH344mfKmrS-tl-6">
          <mxGeometry x="860.3686384976528" y="121.71111688311687" width="11.541530516431926" height="11.541571428571428" as="geometry" />
        </mxCell>
        <mxCell id="wNMRWOxH344mfKmrS-tl-85" value="1" style="text;html=1;align=center;verticalAlign=middle;whiteSpace=wrap;rounded=0;labelBackgroundColor=none;" vertex="1" parent="wNMRWOxH344mfKmrS-tl-6">
          <mxGeometry x="838.3348075117372" y="384.0195584415584" width="11.541530516431926" height="11.541571428571428" as="geometry" />
        </mxCell>
        <mxCell id="wNMRWOxH344mfKmrS-tl-86" value="1" style="text;html=1;align=center;verticalAlign=middle;whiteSpace=wrap;rounded=0;labelBackgroundColor=none;" vertex="1" parent="wNMRWOxH344mfKmrS-tl-6">
          <mxGeometry x="725.0179624413147" y="502.582974025974" width="11.541530516431926" height="11.541571428571428" as="geometry" />
        </mxCell>
        <mxCell id="wNMRWOxH344mfKmrS-tl-87" value="1" style="text;html=1;align=center;verticalAlign=middle;whiteSpace=wrap;rounded=0;labelBackgroundColor=none;" vertex="1" parent="wNMRWOxH344mfKmrS-tl-6">
          <mxGeometry x="671.5072300469485" y="546.6507922077922" width="11.541530516431926" height="11.541571428571428" as="geometry" />
        </mxCell>
        <mxCell id="wNMRWOxH344mfKmrS-tl-88" value="N" style="text;html=1;align=center;verticalAlign=middle;whiteSpace=wrap;rounded=0;labelBackgroundColor=none;" vertex="1" parent="wNMRWOxH344mfKmrS-tl-6">
          <mxGeometry x="812.1040563380284" y="680.9527142857143" width="11.541530516431926" height="11.541571428571428" as="geometry" />
        </mxCell>
      </root>
    </mxGraphModel>
  </diagram>
</mxfile>
